<?xml version="1.0" encoding="utf-8"?>
<!-- Generator: Adobe Illustrator 23.0.1, SVG Export Plug-In . SVG Version: 6.00 Build 0)  -->
<svg version="1.1" id="Laag_1" xmlns="http://www.w3.org/2000/svg" xmlns:xlink="http://www.w3.org/1999/xlink" x="0px" y="0px"
	 viewBox="0 0 80.47 163.68" style="enable-background:new 0 0 80.47 163.68;" xml:space="preserve">
<style type="text/css">
	.st0{fill:#009FE3;}
	.st1{opacity:0.2;}
</style>
<g>
	<g>
		<path class="st0" d="M41.14,2.25l37.32,80.02h-8.64L57.23,55.95H22.76L10.29,82.28H1.37L39.18,2.25H41.14z M40.13,19.25
			L26.41,48.22h27.36L40.13,19.25z"/>
	</g>
	<polygon class="st0" points="69.54,82.23 57.07,108.56 53.33,116.28 53.41,116.28 39.7,145.25 26.06,116.28 22.6,108.56 
		10.01,82.23 1.37,82.23 38.69,162.25 40.65,162.25 78.46,82.23 	"/>
	<polygon class="st1" points="69.54,82.23 57.07,108.56 53.33,116.28 53.41,116.28 39.7,145.25 26.06,116.28 22.6,108.56 
		10.01,82.23 1.37,82.23 38.69,162.25 40.65,162.25 78.46,82.23 	"/>
</g>
</svg>
