<?xml version="1.0" encoding="utf-8"?>
<!-- Generator: Adobe Illustrator 23.0.1, SVG Export Plug-In . SVG Version: 6.00 Build 0)  -->
<svg version="1.1" id="Laag_1" xmlns="http://www.w3.org/2000/svg" xmlns:xlink="http://www.w3.org/1999/xlink" x="0px" y="0px"
	 viewBox="0 0 250.99 69.01" style="enable-background:new 0 0 250.99 69.01;" xml:space="preserve">
<style type="text/css">
	.st0{fill:#FEDB0A;}
	.st1{fill:#943C05;}
</style>
<g>
	<g>
		<path class="st0" d="M94.35,68.41H81.44l-18.2-45.27l-9.47,45.27H40.85L54.92,1.02h12.96l18.25,45.09l9.42-45.09h12.87
			L94.35,68.41z"/>
		<path class="st0" d="M103.83,68.41l1.49-7.16l26.15-30.68h-21.16l1.58-7.59h32.75l-1.36,7.13l-26.43,30.86
			c2.81-0.06,4.43-0.09,4.86-0.09c1.98,0,4.72-0.02,8.21-0.06h10.72l-1.58,7.59H103.83z"/>
		<path class="st0" d="M141.63,68.41l9.51-45.43h9.33l-9.48,45.43H141.63z"/>
		<path class="st0" d="M194.39,68.41h-8.71l-12.27-30.52l-6.38,30.52h-8.71l9.48-45.43h8.74l12.3,30.4l6.35-30.4h8.68L194.39,68.41z
			"/>
		<path class="st0" d="M202.22,68.41l9.48-45.43h9.36l-4.03,19.3l21.01-19.3h12.52L230.17,40.8l14.97,27.61h-10.57l-11.22-21.63
			l-8.83,7.72l-2.91,13.91H202.22z"/>
	</g>
</g>
<polygon class="st1" points="26.14,22.93 37.58,14.62 23.44,14.62 19.07,1.17 14.7,14.62 0.56,14.62 12,22.93 7.63,36.38 
	19.07,28.06 30.51,36.38 "/>
<g>
	<circle class="st1" cx="205.94" cy="6.07" r="3.44"/>
	<path class="st1" d="M221.59,32.25l-5.77-5.77c-0.57-0.57-1.44-0.67-2.12-0.3l-6.44-6.44c2.23,0.17,3.99,1.34,4.63,3.44
		c0.09,0.31,0.54,0.51,0.86,0.51c0.54,0,1.05,0,1.52,0c1.38,0,2.14-1.59,1.29-2.68c-1.67-2.13-4.3-4.76-7.11-4.78
		c-1.29-0.01-2.62,0.3-3.92,0.78l-3.25-3.25l3.9,0.45l5.58,0.64c0.14,0.02,0.28,0.04,0.42,0.05l0.03,0c0.01,0,0.01,0,0.01,0
		c0.15,0.01,0.31,0.01,0.47,0c1.66-0.11,2.93-1.23,2.85-2.5c-0.09-1.27-1.5-2.2-3.16-2.09c-0.36,0.02-0.71,0.1-1.02,0.21l-5.33,1.36
		l-4.51,1.15c-0.19-0.11-0.43-0.09-0.59,0.08c-0.05,0.05-0.08,0.1-0.1,0.15c-0.05,0.05-0.06,0.12-0.04,0.18
		c-0.01,0.14,0.04,0.27,0.14,0.37l3.6,3.6c-4.24,1.83-8.14,5.22-9.92,5.84c-0.22,0.08-0.22,0.16,0,0.18
		c0.51,0.04,2.03,0.08,4.08,0.12c0.25,0,1.01-0.11,1.14-0.32c1.34-2.05,4.57-3.24,7.04-3.47l7.13,7.13
		c-0.38,0.68-0.28,1.56,0.29,2.13l5.77,5.77c0.7,0.7,1.84,0.7,2.53,0C222.29,34.08,222.29,32.94,221.59,32.25z"/>
</g>
<g>
	<circle class="st1" cx="149.23" cy="4.42" r="3.64"/>
	<path class="st1" d="M165.78,32.11L159.68,26c-0.6-0.6-1.52-0.7-2.24-0.32l-6.81-6.81c2.36,0.18,4.22,1.42,4.9,3.64
		c0.1,0.32,0.57,0.54,0.91,0.54c0.57,0,1.11,0,1.61,0c1.46,0,2.26-1.69,1.36-2.84c-1.76-2.26-4.55-5.04-7.52-5.05
		c-1.37-0.01-2.77,0.32-4.15,0.82l-3.44-3.44l4.12,0.47l5.9,0.68c0.15,0.03,0.3,0.04,0.45,0.05l0.03,0c0.01,0,0.01,0,0.02,0
		c0.16,0.01,0.33,0.01,0.5,0c1.75-0.12,3.1-1.3,3.01-2.64c-0.09-1.34-1.59-2.33-3.34-2.21c-0.38,0.03-0.75,0.11-1.08,0.22
		l-5.64,1.44l-4.77,1.22c-0.2-0.11-0.46-0.09-0.63,0.08c-0.05,0.05-0.08,0.1-0.11,0.16c-0.05,0.06-0.06,0.12-0.04,0.19
		c-0.01,0.14,0.04,0.29,0.15,0.4l3.81,3.81c-4.48,1.94-8.61,5.52-10.49,6.18c-0.24,0.08-0.23,0.17,0,0.19
		c0.54,0.04,2.15,0.09,4.32,0.13c0.26,0,1.07-0.12,1.21-0.34c1.42-2.17,4.84-3.43,7.45-3.67l7.54,7.54c-0.4,0.72-0.3,1.65,0.31,2.25
		l6.11,6.11c0.74,0.74,1.94,0.74,2.68,0C166.52,34.05,166.52,32.85,165.78,32.11z"/>
</g>
</svg>
