<?xml version="1.0" encoding="utf-8"?>
<!-- Generator: Adobe Illustrator 23.0.1, SVG Export Plug-In . SVG Version: 6.00 Build 0)  -->
<svg version="1.1" id="Laag_1" xmlns="http://www.w3.org/2000/svg" xmlns:xlink="http://www.w3.org/1999/xlink" x="0px" y="0px"
	 viewBox="0 0 99.99 106.01" style="enable-background:new 0 0 99.99 106.01;" xml:space="preserve">
<style type="text/css">
	.st0{clip-path:url(#SVGID_2_);}
	.st1{fill:#F4F4F4;}
	.st2{fill:#FFFFFF;}
	.st3{font-family:'Cambria';}
	.st4{font-size:17.1057px;}
	.st5{fill:#9B9A9A;}
</style>
<g>
	<defs>
		<rect id="SVGID_1_" x="-0.03" y="0.2" width="100" height="105.56"/>
	</defs>
	<clipPath id="SVGID_2_">
		<use xlink:href="#SVGID_1_"  style="overflow:visible;"/>
	</clipPath>
	<g id="XMLID_307_" class="st0">
		<image style="overflow:visible;" width="100" height="107" id="XMLID_353_" xlink:href="35D471EA.png" >
		</image>
		<g id="XMLID_314_">
			<path id="XMLID_351_" class="st1" d="M36.5,86.18l-0.74,5.26h-0.68l0.74-5.26H36.5z"/>
			<path id="XMLID_340_" class="st1" d="M40.65,91.26c-0.27,0.12-0.78,0.25-1.42,0.25c-1.48,0-2.47-0.94-2.22-2.66
				c0.23-1.65,1.5-2.76,3.13-2.76c0.66,0,1.05,0.14,1.22,0.23l-0.24,0.55c-0.24-0.12-0.59-0.22-1.03-0.22
				c-1.23,0-2.16,0.79-2.36,2.17c-0.18,1.29,0.44,2.11,1.72,2.11c0.41,0,0.85-0.09,1.14-0.22L40.65,91.26z"/>
			<path id="XMLID_338_" class="st1" d="M43.35,86.75h-1.6l0.08-0.58h3.89l-0.08,0.58h-1.61l-0.66,4.68h-0.69L43.35,86.75z"/>
			<path id="XMLID_336_" class="st1" d="M51.98,89.13c0.06-0.73,0.14-1.61,0.24-2.27H52.2c-0.27,0.62-0.58,1.27-0.94,2l-1.29,2.55
				h-0.51l-0.5-2.5c-0.15-0.74-0.26-1.42-0.32-2.04h-0.02c-0.11,0.66-0.27,1.54-0.43,2.32l-0.46,2.25h-0.65l1.11-5.26h0.87
				l0.54,2.54c0.13,0.65,0.23,1.22,0.28,1.77h0.02c0.21-0.53,0.48-1.11,0.8-1.77L52,86.18h0.87l-0.41,5.26h-0.66L51.98,89.13z"/>
			<path id="XMLID_333_" class="st1" d="M54.5,89.78l-0.78,1.65h-0.7l2.53-5.26h0.82l1.06,5.26H56.7l-0.33-1.65H54.5z M56.3,89.25
				L56,87.74c-0.07-0.34-0.1-0.66-0.14-0.96h-0.02c-0.12,0.31-0.25,0.63-0.4,0.95l-0.73,1.52H56.3z"/>
			<path id="XMLID_331_" class="st1" d="M58.2,91.43l0.74-5.26h0.74l1.31,2.66c0.3,0.62,0.53,1.17,0.7,1.71l0.02-0.01
				c0.04-0.7,0.11-1.34,0.23-2.16l0.31-2.2h0.64l-0.74,5.26h-0.69l-1.29-2.67c-0.28-0.59-0.55-1.19-0.74-1.76l-0.02,0.01
				c-0.05,0.66-0.13,1.3-0.25,2.17l-0.32,2.25H58.2z"/>
			<path id="XMLID_328_" class="st1" d="M64.41,89.78l-0.78,1.65h-0.7l2.53-5.26h0.82l1.06,5.26h-0.73l-0.33-1.65H64.41z
				 M66.21,89.25l-0.3-1.51c-0.07-0.34-0.1-0.66-0.14-0.96h-0.02c-0.12,0.31-0.25,0.63-0.4,0.95l-0.73,1.52H66.21z"/>
			<path id="XMLID_326_" class="st1" d="M72.02,91.2c-0.32,0.11-0.95,0.29-1.66,0.29c-0.8,0-1.42-0.2-1.87-0.69
				c-0.39-0.44-0.57-1.14-0.46-1.96c0.23-1.57,1.47-2.72,3.23-2.72c0.61,0,1.07,0.13,1.28,0.24l-0.24,0.55
				c-0.26-0.12-0.6-0.23-1.13-0.23c-1.28,0-2.23,0.8-2.41,2.11c-0.19,1.33,0.51,2.12,1.73,2.12c0.44,0,0.76-0.06,0.92-0.14
				l0.22-1.57h-1.07l0.08-0.55h1.73L72.02,91.2z"/>
			<path id="XMLID_324_" class="st1" d="M76.1,88.97h-2.04l-0.27,1.9h2.28l-0.08,0.57h-2.96l0.74-5.26h2.84l-0.08,0.57h-2.16
				l-0.23,1.66h2.04L76.1,88.97z"/>
			<path id="XMLID_322_" class="st1" d="M81.62,89.13c0.06-0.73,0.14-1.61,0.24-2.27h-0.02c-0.27,0.62-0.58,1.27-0.94,2l-1.29,2.55
				H79.1l-0.5-2.5c-0.15-0.74-0.26-1.42-0.32-2.04h-0.02c-0.11,0.66-0.27,1.54-0.43,2.32l-0.46,2.25h-0.65l1.11-5.26h0.87l0.54,2.54
				c0.13,0.65,0.23,1.22,0.28,1.77h0.02c0.21-0.53,0.48-1.11,0.8-1.77l1.29-2.54h0.87l-0.41,5.26h-0.66L81.62,89.13z"/>
			<path id="XMLID_320_" class="st1" d="M86.21,88.97h-2.04l-0.27,1.9h2.28l-0.08,0.57h-2.96l0.74-5.26h2.84l-0.08,0.57h-2.16
				l-0.23,1.66h2.04L86.21,88.97z"/>
			<path id="XMLID_318_" class="st1" d="M86.98,91.43l0.74-5.26h0.74l1.31,2.66c0.3,0.62,0.53,1.17,0.7,1.71l0.02-0.01
				c0.04-0.7,0.11-1.34,0.23-2.16l0.31-2.2h0.64l-0.74,5.26h-0.69l-1.29-2.67c-0.28-0.59-0.55-1.19-0.74-1.76l-0.02,0.01
				c-0.05,0.66-0.13,1.3-0.25,2.17l-0.32,2.25H86.98z"/>
			<path id="XMLID_315_" class="st1" d="M93.77,86.75h-1.6l0.08-0.58h3.89l-0.08,0.58h-1.61l-0.66,4.68h-0.69L93.77,86.75z"/>
		</g>
		<text id="XMLID_313_" transform="matrix(0.9903 0 -0.1392 0.9903 61.0355 84.5212)" class="st2 st3 st4">PPUI</text>
		<g id="XMLID_308_">
			<g id="XMLID_310_">
				<polygon id="XMLID_312_" class="st5" points="50.65,41.1 49.18,22.5 43.01,31.04 				"/>
				<polygon id="XMLID_311_" class="st1" points="5.35,83.14 49.18,22.5 29.28,22.5 				"/>
			</g>
			<path id="XMLID_309_" class="st1" d="M61.27,84.53H49.53l-5.02-11.48H22.4l-5.59,11.48h-6.44c-0.24,0-0.43-0.19-0.43-0.43
				s0.19-0.43,0.43-0.43h5.9l5.59-11.48h23.22l5.02,11.48h10.06l-7.65-30.3c-0.06-0.23,0.08-0.47,0.31-0.53
				c0.23-0.06,0.47,0.08,0.53,0.31L61.27,84.53z"/>
		</g>
	</g>
</g>
</svg>
