<?xml version="1.0" encoding="utf-8"?>
<!-- Generator: Adobe Illustrator 23.0.1, SVG Export Plug-In . SVG Version: 6.00 Build 0)  -->
<svg version="1.1" id="Laag_1" xmlns="http://www.w3.org/2000/svg" xmlns:xlink="http://www.w3.org/1999/xlink" x="0px" y="0px"
	 viewBox="0 0 249.99 188.01" style="enable-background:new 0 0 249.99 188.01;" xml:space="preserve">
<style type="text/css">
	.st0{fill:#FFFFFF;stroke:#1D1E1C;stroke-miterlimit:10;}
	.st1{fill:#496DAD;}
	.st2{font-family:'Calibri';}
	.st3{font-size:10.9037px;}
	.st4{font-size:7.7884px;}
	.st5{fill:#F4F4F4;}
	.st6{fill:#FFFFFF;}
	.st7{font-family:'Cambria';}
	.st8{font-size:11.9903px;}
	.st9{fill:#9B9A9A;}
	.st10{clip-path:url(#XMLID_2_);}
	.st11{font-family:'Calibri-BoldItalic';}
	.st12{font-size:15.5767px;}
	.st13{font-family:'Calibri-LightItalic';}
</style>
<rect id="XMLID_460_" x="129.07" y="0.14" class="st0" width="121.43" height="187.66"/>
<g id="XMLID_457_">
	<text id="XMLID_458_" transform="matrix(1 0 0 1 177.3408 133.5664)"><tspan x="0" y="0" class="st1 st2 st3">naam</tspan><tspan x="-8.36" y="9.35" class="st2 st4">naam functie</tspan><tspan x="-14.58" y="18.69" class="st2 st4">telefoonnummer</tspan><tspan x="-6.18" y="28.04" class="st2 st4">e-mailadres</tspan></text>
</g>
<g id="XMLID_420_">
	
		<image style="overflow:visible;" width="71" height="75" id="XMLID_232_" xlink:href="B15E80C1.png"  transform="matrix(1 0 0 1 154 25)">
	</image>
	<g id="XMLID_196_">
		<path id="XMLID_230_" class="st5" d="M180.56,85.63l-0.52,3.69h-0.48l0.52-3.69H180.56z"/>
		<path id="XMLID_228_" class="st5" d="M183.46,89.19c-0.19,0.09-0.55,0.17-1,0.17c-1.04,0-1.73-0.66-1.56-1.86
			c0.16-1.15,1.05-1.94,2.2-1.94c0.46,0,0.74,0.1,0.85,0.16l-0.17,0.39c-0.17-0.09-0.42-0.15-0.72-0.15c-0.86,0-1.52,0.55-1.65,1.52
			c-0.13,0.9,0.31,1.48,1.21,1.48c0.29,0,0.59-0.06,0.8-0.15L183.46,89.19z"/>
		<path id="XMLID_226_" class="st5" d="M185.36,86.03h-1.12l0.06-0.4h2.73l-0.06,0.4h-1.13l-0.46,3.28h-0.48L185.36,86.03z"/>
		<path id="XMLID_224_" class="st5" d="M191.41,87.7c0.04-0.51,0.1-1.13,0.17-1.59h-0.02c-0.19,0.43-0.4,0.89-0.66,1.4l-0.9,1.79
			h-0.36l-0.35-1.76c-0.1-0.52-0.18-1-0.23-1.43h-0.01c-0.08,0.46-0.19,1.08-0.3,1.63l-0.32,1.58h-0.45l0.78-3.69h0.61l0.38,1.78
			c0.09,0.45,0.16,0.86,0.2,1.24h0.02c0.15-0.37,0.33-0.78,0.56-1.24l0.91-1.78h0.61l-0.29,3.69h-0.46L191.41,87.7z"/>
		<path id="XMLID_219_" class="st5" d="M193.18,88.16l-0.55,1.16h-0.49l1.77-3.69h0.57l0.74,3.69h-0.51l-0.23-1.16H193.18z
			 M194.44,87.78l-0.21-1.06c-0.05-0.24-0.07-0.46-0.1-0.67h-0.01c-0.09,0.22-0.18,0.44-0.28,0.67l-0.51,1.07H194.44z"/>
		<path id="XMLID_217_" class="st5" d="M195.77,89.31l0.52-3.69h0.52l0.92,1.86c0.21,0.43,0.37,0.82,0.49,1.2l0.01-0.01
			c0.03-0.49,0.08-0.94,0.16-1.51l0.22-1.54h0.45l-0.52,3.69h-0.48l-0.91-1.87c-0.2-0.41-0.39-0.83-0.52-1.23l-0.02,0.01
			c-0.04,0.46-0.09,0.91-0.18,1.52l-0.22,1.57H195.77z"/>
		<path id="XMLID_214_" class="st5" d="M200.12,88.16l-0.55,1.16h-0.49l1.77-3.69h0.57l0.74,3.69h-0.51l-0.23-1.16H200.12z
			 M201.38,87.78l-0.21-1.06c-0.05-0.24-0.07-0.46-0.1-0.67h-0.01c-0.09,0.22-0.18,0.44-0.28,0.67l-0.51,1.07H201.38z"/>
		<path id="XMLID_212_" class="st5" d="M205.46,89.15c-0.22,0.08-0.66,0.2-1.16,0.2c-0.56,0-1-0.14-1.31-0.49
			c-0.27-0.31-0.4-0.8-0.32-1.37c0.16-1.1,1.03-1.9,2.26-1.9c0.43,0,0.75,0.09,0.89,0.17l-0.17,0.39c-0.18-0.09-0.42-0.16-0.79-0.16
			c-0.9,0-1.56,0.56-1.69,1.48c-0.13,0.94,0.35,1.49,1.21,1.49c0.31,0,0.53-0.04,0.65-0.1l0.15-1.1h-0.75l0.05-0.38h1.21
			L205.46,89.15z"/>
		<path id="XMLID_210_" class="st5" d="M208.31,87.59h-1.43l-0.19,1.33h1.6l-0.06,0.4h-2.07l0.52-3.69h1.99l-0.06,0.4h-1.51
			l-0.16,1.16h1.43L208.31,87.59z"/>
		<path id="XMLID_208_" class="st5" d="M212.19,87.7c0.04-0.51,0.1-1.13,0.17-1.59h-0.02c-0.19,0.43-0.4,0.89-0.66,1.4l-0.9,1.79
			h-0.36l-0.35-1.76c-0.1-0.52-0.18-1-0.23-1.43h-0.01c-0.08,0.46-0.19,1.08-0.3,1.63l-0.32,1.58h-0.45l0.78-3.69h0.61l0.38,1.78
			c0.09,0.45,0.16,0.86,0.2,1.24h0.02c0.15-0.37,0.33-0.78,0.56-1.24l0.91-1.78h0.61l-0.29,3.69h-0.46L212.19,87.7z"/>
		<path id="XMLID_201_" class="st5" d="M215.4,87.59h-1.43l-0.19,1.33h1.6l-0.06,0.4h-2.07l0.52-3.69h1.99l-0.06,0.4h-1.51
			l-0.16,1.16h1.43L215.4,87.59z"/>
		<path id="XMLID_199_" class="st5" d="M215.94,89.31l0.52-3.69h0.52l0.92,1.86c0.21,0.43,0.37,0.82,0.49,1.2l0.01-0.01
			c0.03-0.49,0.08-0.94,0.16-1.51l0.22-1.54h0.45l-0.52,3.69h-0.48l-0.91-1.87c-0.2-0.41-0.39-0.83-0.52-1.23l-0.02,0.01
			c-0.04,0.46-0.09,0.91-0.18,1.52l-0.22,1.57H215.94z"/>
		<path id="XMLID_197_" class="st5" d="M220.7,86.03h-1.12l0.06-0.4h2.73l-0.06,0.4h-1.13l-0.46,3.28h-0.48L220.7,86.03z"/>
	</g>
	<text id="XMLID_195_" transform="matrix(0.9903 0 -0.1392 0.9903 197.7547 84.4688)" class="st6 st7 st8">PPUI</text>
	<g id="XMLID_190_">
		<g id="XMLID_192_">
			<polygon id="XMLID_194_" class="st9" points="190.48,54.03 189.45,40.99 185.12,46.98 			"/>
			<polygon id="XMLID_193_" class="st5" points="158.72,83.5 189.45,40.99 175.5,40.99 			"/>
		</g>
		<path id="XMLID_191_" class="st5" d="M197.92,84.47h-8.23l-3.52-8.05h-15.5l-3.92,8.05h-4.52c-0.17,0-0.3-0.14-0.3-0.3
			s0.14-0.3,0.3-0.3h4.14l3.92-8.05h16.28l3.52,8.05h7.05l-5.36-21.24c-0.04-0.16,0.06-0.33,0.22-0.37
			c0.16-0.04,0.33,0.06,0.37,0.22L197.92,84.47z"/>
	</g>
</g>
<g id="XMLID_400_">
	<g id="XMLID_402_">
		<defs>
			<rect id="XMLID_403_" x="0.5" y="0.14" width="121.43" height="187.66"/>
		</defs>
		<clipPath id="XMLID_2_">
			<use xlink:href="#XMLID_403_"  style="overflow:visible;"/>
		</clipPath>
		<g id="XMLID_288_" class="st10">
			<g id="XMLID_287_">
				
					<image style="overflow:visible;" width="255" height="271" id="XMLID_317_" xlink:href="B15E80C3.png"  transform="matrix(1 0 0 1 -66 -40)">
				</image>
			</g>
			<g id="XMLID_282_">
				<g id="XMLID_284_">
					<polygon id="XMLID_286_" class="st9" points="119.57,53.42 114.56,-9.99 93.53,19.11 					"/>
					<polygon id="XMLID_285_" class="st5" points="-34.86,196.74 114.56,-9.99 46.73,-9.99 					"/>
				</g>
				<path id="XMLID_283_" class="st5" d="M155.77,201.46h-40.02l-17.1-39.13H23.27L4.2,201.46h-21.96c-0.81,0-1.47-0.66-1.47-1.47
					c0-0.81,0.66-1.47,1.47-1.47H2.36l19.07-39.13h79.15l17.1,39.13h34.3l-26.08-103.3c-0.2-0.79,0.28-1.59,1.07-1.79
					c0.79-0.2,1.59,0.28,1.79,1.07L155.77,201.46z"/>
			</g>
		</g>
	</g>
	<text id="XMLID_401_" transform="matrix(1.003 0 0 1 40.9766 111.3281)"><tspan x="0" y="0" class="st6 st11 st12">APPUI</tspan><tspan x="-8.1" y="18.69" class="st6 st13 st12">uw steun</tspan><tspan x="-21.19" y="37.38" class="st6 st13 st12">en toeverlaat</tspan></text>
</g>
</svg>
